<svg xmlns="http://www.w3.org/2000/svg" xmlns:xlink="http://www.w3.org/1999/xlink" width="118" zoomAndPan="magnify" viewBox="0 0 88.5 33.749998" height="45" preserveAspectRatio="xMidYMid meet" version="1.0"><defs><g/><clipPath id="d10441e1bc"><path d="M 9 19 L 29 19 L 29 30 L 9 30 Z M 9 19 " clip-rule="nonzero"/></clipPath><clipPath id="7dd91e0b0b"><path d="M 7.097656 0 L 32.277344 6.707031 L 25.1875 33.324219 L 0.0078125 26.621094 Z M 7.097656 0 " clip-rule="nonzero"/></clipPath><clipPath id="e227012ec3"><path d="M 7.097656 0 L 32.277344 6.707031 L 25.1875 33.324219 L 0.0078125 26.621094 Z M 7.097656 0 " clip-rule="nonzero"/></clipPath><clipPath id="7c905ff3b1"><path d="M 3 2 L 29 2 L 29 30 L 3 30 Z M 3 2 " clip-rule="nonzero"/></clipPath><clipPath id="b237e136b0"><path d="M 7.097656 0 L 32.277344 6.707031 L 25.1875 33.324219 L 0.0078125 26.621094 Z M 7.097656 0 " clip-rule="nonzero"/></clipPath><clipPath id="1b450ebd6e"><path d="M 7.097656 0 L 32.277344 6.707031 L 25.1875 33.324219 L 0.0078125 26.621094 Z M 7.097656 0 " clip-rule="nonzero"/></clipPath><clipPath id="d6bbe12124"><path d="M 3 20 L 7 20 L 7 23 L 3 23 Z M 3 20 " clip-rule="nonzero"/></clipPath><clipPath id="278f77ee90"><path d="M 7.097656 0 L 32.277344 6.707031 L 25.1875 33.324219 L 0.0078125 26.621094 Z M 7.097656 0 " clip-rule="nonzero"/></clipPath><clipPath id="2fbd05aba1"><path d="M 7.097656 0 L 32.277344 6.707031 L 25.1875 33.324219 L 0.0078125 26.621094 Z M 7.097656 0 " clip-rule="nonzero"/></clipPath><clipPath id="dd3b00e9e6"><path d="M 3 22 L 7 22 L 7 24 L 3 24 Z M 3 22 " clip-rule="nonzero"/></clipPath><clipPath id="4105a8ea87"><path d="M 7.097656 0 L 32.277344 6.707031 L 25.1875 33.324219 L 0.0078125 26.621094 Z M 7.097656 0 " clip-rule="nonzero"/></clipPath><clipPath id="914a403911"><path d="M 7.097656 0 L 32.277344 6.707031 L 25.1875 33.324219 L 0.0078125 26.621094 Z M 7.097656 0 " clip-rule="nonzero"/></clipPath><clipPath id="abb5419343"><path d="M 3 23 L 7 23 L 7 26 L 3 26 Z M 3 23 " clip-rule="nonzero"/></clipPath><clipPath id="f84d644cd0"><path d="M 7.097656 0 L 32.277344 6.707031 L 25.1875 33.324219 L 0.0078125 26.621094 Z M 7.097656 0 " clip-rule="nonzero"/></clipPath><clipPath id="af25415b33"><path d="M 7.097656 0 L 32.277344 6.707031 L 25.1875 33.324219 L 0.0078125 26.621094 Z M 7.097656 0 " clip-rule="nonzero"/></clipPath><clipPath id="78af135ef8"><path d="M 4 25 L 8 25 L 8 28 L 4 28 Z M 4 25 " clip-rule="nonzero"/></clipPath><clipPath id="46dfe0ab23"><path d="M 7.097656 0 L 32.277344 6.707031 L 25.1875 33.324219 L 0.0078125 26.621094 Z M 7.097656 0 " clip-rule="nonzero"/></clipPath><clipPath id="589b85bc15"><path d="M 7.097656 0 L 32.277344 6.707031 L 25.1875 33.324219 L 0.0078125 26.621094 Z M 7.097656 0 " clip-rule="nonzero"/></clipPath></defs><g clip-path="url(#d10441e1bc)"><g clip-path="url(#7dd91e0b0b)"><g clip-path="url(#e227012ec3)"><path fill="#ffffff" d="M 22.070312 26.15625 C 23.230469 24.984375 24.109375 23.5 24.5625 21.792969 C 24.714844 21.230469 24.8125 20.664062 24.859375 20.101562 C 23.910156 22.128906 22.277344 23.699219 20.324219 24.597656 C 19.195312 25.117188 17.859375 24.597656 17.390625 23.445312 L 16.515625 21.292969 C 16.371094 20.933594 16.0625 20.664062 15.691406 20.566406 L 10.539062 19.195312 C 10.539062 19.195312 10.535156 19.195312 10.535156 19.195312 C 10.183594 19.101562 9.855469 19.414062 9.929688 19.769531 L 10.027344 20.230469 C 10.207031 21.09375 10.824219 21.796875 11.652344 22.089844 L 11.949219 22.195312 L 13.257812 22.65625 C 13.628906 22.785156 13.914062 23.085938 14.027344 23.460938 L 14.367188 24.613281 L 14.558594 25.261719 L 15.632812 28.875 C 15.652344 28.9375 15.679688 29 15.71875 29.050781 C 15.824219 29.207031 16 29.304688 16.195312 29.308594 C 16.199219 29.308594 16.199219 29.308594 16.199219 29.308594 C 21.453125 29.40625 26.339844 26.328125 28.484375 21.453125 C 27.097656 23.875 24.742188 25.570312 22.070312 26.15625 " fill-opacity="1" fill-rule="nonzero"/></g></g></g><g clip-path="url(#7c905ff3b1)"><g clip-path="url(#b237e136b0)"><g clip-path="url(#1b450ebd6e)"><path fill="#ffffff" d="M 13.601562 23.589844 C 13.53125 23.347656 13.347656 23.15625 13.113281 23.070312 L 11.503906 22.503906 C 10.535156 22.164062 9.804688 21.328125 9.597656 20.320312 L 9.503906 19.882812 C 9.441406 19.570312 9.523438 19.242188 9.746094 19.015625 C 9.980469 18.78125 10.308594 18.6875 10.625 18.761719 L 10.652344 18.769531 L 12.300781 19.207031 C 11.992188 18.214844 11.148438 17.480469 10.121094 17.304688 L 8.363281 17.011719 C 7.613281 16.882812 7.085938 16.203125 7.144531 15.441406 C 7.1875 14.875 7.28125 14.308594 7.433594 13.742188 C 8.199219 10.871094 10.222656 8.671875 12.757812 7.582031 C 10.320312 8.394531 8.167969 9.972656 6.667969 12.109375 C 8.972656 6.613281 15.03125 3.523438 20.953125 5.101562 C 24.613281 6.078125 27.4375 8.632812 28.882812 11.835938 C 27.5 7.851562 24.230469 4.601562 19.855469 3.421875 C 12.847656 1.535156 5.589844 5.722656 3.710938 12.730469 C 3.050781 15.199219 3.136719 17.6875 3.828125 19.964844 C 3.84375 20.011719 3.859375 20.058594 3.875 20.109375 L 5.648438 20.273438 C 6.441406 20.34375 6.871094 21.246094 6.421875 21.902344 C 6.40625 21.921875 6.398438 21.929688 6.398438 21.929688 C 7.386719 22.617188 6.917969 23.636719 6.917969 23.636719 C 7.769531 24.332031 7.128906 25.136719 7.128906 25.136719 C 7.433594 25.367188 7.476562 25.675781 7.484375 25.773438 C 7.488281 25.824219 7.496094 25.875 7.5 25.925781 L 7.707031 27.796875 C 7.746094 28.117188 8.03125 28.449219 8.34375 28.53125 C 8.738281 28.636719 9.117188 28.316406 9.074219 27.910156 L 8.984375 27.003906 L 8.867188 25.796875 C 8.855469 25.710938 8.933594 25.640625 9.015625 25.65625 C 9.074219 25.667969 9.113281 25.71875 9.121094 25.773438 L 9.316406 27.222656 L 9.457031 28.292969 C 9.507812 28.664062 9.820312 28.953125 10.195312 28.941406 C 10.640625 28.933594 10.96875 28.523438 10.886719 28.085938 L 10.441406 25.769531 C 10.421875 25.671875 10.507812 25.582031 10.605469 25.601562 C 10.664062 25.609375 10.710938 25.652344 10.722656 25.710938 L 11.332031 28.28125 L 11.40625 28.601562 C 11.480469 28.914062 11.765625 29.144531 12.089844 29.125 C 12.339844 29.109375 12.546875 28.957031 12.644531 28.75 C 12.703125 28.625 12.726562 28.476562 12.691406 28.328125 L 12.234375 26.246094 C 12.214844 26.15625 12.273438 26.058594 12.367188 26.046875 C 12.449219 26.035156 12.523438 26.089844 12.542969 26.167969 L 13.070312 28.46875 C 13.113281 28.65625 13.210938 28.816406 13.335938 28.9375 C 13.550781 29.144531 13.855469 29.246094 14.167969 29.191406 C 14.226562 29.179688 14.285156 29.160156 14.339844 29.140625 C 14.792969 28.96875 15.050781 28.46875 14.90625 27.984375 L 13.601562 23.589844 " fill-opacity="1" fill-rule="nonzero"/></g></g></g><g clip-path="url(#d6bbe12124)"><g clip-path="url(#278f77ee90)"><g clip-path="url(#2fbd05aba1)"><path fill="#ffffff" d="M 4.167969 21.894531 L 5.5625 22.027344 C 5.980469 22.070312 6.355469 21.761719 6.394531 21.34375 C 6.433594 20.925781 6.128906 20.554688 5.707031 20.511719 L 4.3125 20.378906 C 3.894531 20.339844 3.523438 20.644531 3.484375 21.0625 C 3.441406 21.480469 3.75 21.855469 4.167969 21.894531 " fill-opacity="1" fill-rule="nonzero"/></g></g></g><g clip-path="url(#dd3b00e9e6)"><g clip-path="url(#4105a8ea87)"><g clip-path="url(#914a403911)"><path fill="#ffffff" d="M 6.691406 22.972656 C 6.730469 22.554688 6.421875 22.183594 6.003906 22.144531 L 4.089844 22.007812 C 3.667969 21.964844 3.296875 22.273438 3.257812 22.691406 C 3.21875 23.109375 3.523438 23.480469 3.941406 23.523438 L 5.859375 23.660156 C 6.277344 23.699219 6.648438 23.390625 6.691406 22.972656 " fill-opacity="1" fill-rule="nonzero"/></g></g></g><g clip-path="url(#abb5419343)"><g clip-path="url(#f84d644cd0)"><g clip-path="url(#af25415b33)"><path fill="#ffffff" d="M 6.902344 24.652344 C 6.941406 24.234375 6.636719 23.863281 6.214844 23.820312 L 4.820312 23.6875 C 4.402344 23.648438 4.03125 23.953125 3.992188 24.371094 C 3.949219 24.792969 4.257812 25.164062 4.675781 25.203125 L 6.070312 25.339844 C 6.488281 25.378906 6.863281 25.070312 6.902344 24.652344 " fill-opacity="1" fill-rule="nonzero"/></g></g></g><g clip-path="url(#78af135ef8)"><g clip-path="url(#46dfe0ab23)"><g clip-path="url(#589b85bc15)"><path fill="#ffffff" d="M 6.765625 25.488281 L 5.621094 25.371094 C 5.203125 25.332031 4.832031 25.636719 4.792969 26.058594 C 4.75 26.476562 5.058594 26.847656 5.476562 26.886719 L 6.621094 27.003906 C 7.039062 27.046875 7.410156 26.738281 7.453125 26.320312 C 7.492188 25.902344 7.183594 25.53125 6.765625 25.488281 " fill-opacity="1" fill-rule="nonzero"/></g></g></g><g fill="#ffffff" fill-opacity="1"><g transform="translate(14.361973, 20.05232)"><g><path d="M 4.265625 0.15625 C 6.25 0.15625 7.640625 -0.96875 7.640625 -2.71875 C 7.640625 -4.390625 6.25 -4.96875 4.734375 -5.453125 C 3.625 -5.828125 2.734375 -6.1875 2.734375 -6.90625 C 2.734375 -7.484375 3.265625 -7.90625 4.15625 -7.90625 C 4.703125 -7.90625 5.328125 -7.671875 5.75 -7.28125 C 5.953125 -7.140625 6.109375 -7.09375 6.296875 -7.296875 L 6.9375 -8.046875 C 7.0625 -8.1875 7.0625 -8.359375 6.921875 -8.515625 C 6.375 -9.140625 5.3125 -9.578125 4.234375 -9.578125 C 2.265625 -9.578125 1.015625 -8.515625 1.015625 -6.921875 C 1.015625 -5.390625 2.0625 -4.703125 3.84375 -4.125 C 5.125 -3.6875 5.828125 -3.359375 5.828125 -2.6875 C 5.828125 -1.96875 5.25 -1.53125 4.1875 -1.53125 C 3.40625 -1.53125 2.515625 -1.984375 1.96875 -2.578125 C 1.8125 -2.71875 1.671875 -2.75 1.546875 -2.640625 L 0.75 -1.828125 C 0.609375 -1.703125 0.59375 -1.546875 0.6875 -1.421875 C 1.375 -0.5 2.828125 0.15625 4.265625 0.15625 Z M 4.265625 0.15625 "/></g></g></g><g fill="#ffffff" fill-opacity="1"><g transform="translate(23.872412, 20.05232)"><g><path d="M 6.375 -6.296875 L 5.09375 -6.296875 C 4.96875 -6.296875 4.875 -6.234375 4.828125 -6.125 L 3.265625 -2.0625 L 1.703125 -6.125 C 1.671875 -6.234375 1.5625 -6.296875 1.453125 -6.296875 L 0.15625 -6.296875 C 0.046875 -6.296875 -0.03125 -6.203125 0.03125 -6.0625 L 2.484375 -0.21875 L 1.546875 2.125 C 1.453125 2.359375 1.5625 2.4375 1.765625 2.4375 L 2.78125 2.4375 C 2.90625 2.4375 2.96875 2.390625 3.015625 2.265625 L 4.03125 -0.171875 L 6.515625 -6.0625 C 6.578125 -6.203125 6.484375 -6.296875 6.375 -6.296875 Z M 6.375 -6.296875 "/></g></g></g><g fill="#ffffff" fill-opacity="1"><g transform="translate(31.681801, 20.05232)"><g><path d="M 4.40625 -6.453125 C 3.5 -6.453125 2.625 -5.9375 2.21875 -5.203125 L 1.921875 -6.171875 C 1.875 -6.25 1.8125 -6.3125 1.71875 -6.3125 L 1.03125 -6.3125 C 0.90625 -6.3125 0.828125 -6.234375 0.828125 -6.109375 L 0.828125 -0.1875 C 0.828125 -0.0625 0.890625 0 1.015625 0 L 2.203125 0 C 2.328125 0 2.40625 -0.0625 2.40625 -0.1875 L 2.40625 -3.625 C 2.40625 -4.375 3.09375 -5.03125 3.921875 -5.03125 C 4.78125 -5.03125 5.328125 -4.453125 5.328125 -3.65625 L 5.328125 -0.1875 C 5.328125 -0.0625 5.390625 0 5.515625 0 L 6.703125 0 C 6.828125 0 6.90625 -0.0625 6.90625 -0.1875 L 6.90625 -3.75 C 6.90625 -5.421875 5.875 -6.453125 4.40625 -6.453125 Z M 4.40625 -6.453125 "/></g></g></g><g fill="#ffffff" fill-opacity="1"><g transform="translate(40.614871, 20.05232)"><g><path d="M 3.78125 0.15625 C 4.5 0.15625 5.390625 -0.1875 5.953125 -0.65625 C 6.046875 -0.734375 6.0625 -0.875 6 -0.953125 L 5.390625 -1.828125 C 5.3125 -1.9375 5.171875 -1.9375 5.09375 -1.875 C 4.765625 -1.59375 4.3125 -1.40625 3.796875 -1.40625 C 2.84375 -1.40625 2.078125 -2.1875 2.078125 -3.15625 C 2.078125 -4.15625 2.828125 -4.90625 3.78125 -4.90625 C 4.3125 -4.90625 4.75 -4.703125 5.109375 -4.40625 C 5.203125 -4.328125 5.328125 -4.359375 5.390625 -4.453125 L 6 -5.359375 C 6.046875 -5.453125 6.046875 -5.578125 5.953125 -5.65625 C 5.453125 -6.109375 4.578125 -6.453125 3.765625 -6.453125 C 1.9375 -6.453125 0.4375 -4.984375 0.4375 -3.15625 C 0.4375 -1.34375 1.921875 0.15625 3.78125 0.15625 Z M 3.78125 0.15625 "/></g></g></g><g fill="#ffffff" fill-opacity="1"><g transform="translate(48.324927, 20.05232)"><g><path d="M 7.359375 -2.265625 C 6.84375 -1.84375 6.109375 -1.609375 5.5 -1.609375 C 3.734375 -1.609375 2.3125 -2.96875 2.3125 -4.703125 C 2.3125 -6.453125 3.71875 -7.828125 5.5 -7.828125 C 6.140625 -7.828125 6.859375 -7.59375 7.375 -7.140625 C 7.546875 -7.015625 7.71875 -7.0625 7.78125 -7.15625 L 8.484375 -8.234375 C 8.5625 -8.328125 8.546875 -8.46875 8.390625 -8.59375 C 7.625 -9.203125 6.453125 -9.578125 5.5 -9.578125 C 2.75 -9.578125 0.5625 -7.4375 0.5625 -4.703125 C 0.5625 -1.96875 2.75 0.15625 5.5 0.15625 C 6.46875 0.15625 7.609375 -0.234375 8.359375 -0.8125 C 8.5 -0.921875 8.546875 -1.078125 8.484375 -1.171875 L 7.78125 -2.25 C 7.703125 -2.375 7.515625 -2.375 7.359375 -2.265625 Z M 7.359375 -2.265625 "/></g></g></g><g fill="#ffffff" fill-opacity="1"><g transform="translate(58.741763, 20.05232)"><g><path d="M 0.4375 -3.15625 C 0.4375 -1.296875 1.921875 0.15625 3.796875 0.15625 C 5.671875 0.15625 7.140625 -1.296875 7.140625 -3.15625 C 7.140625 -5 5.671875 -6.453125 3.796875 -6.453125 C 1.921875 -6.453125 0.4375 -5 0.4375 -3.15625 Z M 2.03125 -3.15625 C 2.03125 -4.171875 2.78125 -4.953125 3.796875 -4.953125 C 4.796875 -4.953125 5.546875 -4.171875 5.546875 -3.15625 C 5.546875 -2.125 4.796875 -1.359375 3.796875 -1.359375 C 2.78125 -1.359375 2.03125 -2.125 2.03125 -3.15625 Z M 2.03125 -3.15625 "/></g></g></g><g fill="#ffffff" fill-opacity="1"><g transform="translate(67.59413, 20.05232)"><g><path d="M 5.609375 -5.875 C 5.171875 -6.21875 4.609375 -6.453125 4.109375 -6.453125 C 3.359375 -6.453125 2.609375 -5.96875 2.203125 -5.265625 L 1.921875 -6.171875 C 1.875 -6.25 1.8125 -6.3125 1.71875 -6.3125 L 1.03125 -6.3125 C 0.90625 -6.3125 0.828125 -6.234375 0.828125 -6.109375 L 0.828125 -0.1875 C 0.828125 -0.0625 0.890625 0 1.015625 0 L 2.203125 0 C 2.328125 0 2.40625 -0.0625 2.40625 -0.1875 L 2.40625 -3.453125 C 2.40625 -4.328125 3.046875 -5.09375 3.90625 -5.09375 C 4.1875 -5.09375 4.546875 -4.9375 4.828125 -4.6875 C 4.9375 -4.609375 5.046875 -4.640625 5.125 -4.75 L 5.625 -5.578125 C 5.703125 -5.6875 5.6875 -5.8125 5.609375 -5.875 Z M 5.609375 -5.875 "/></g></g></g><g fill="#ffffff" fill-opacity="1"><g transform="translate(74.807529, 20.05232)"><g><path d="M 6.84375 -3.453125 C 6.84375 -5.140625 5.46875 -6.453125 3.71875 -6.453125 C 1.875 -6.453125 0.4375 -5 0.4375 -3.140625 C 0.4375 -1.296875 1.90625 0.15625 3.796875 0.15625 C 4.515625 0.15625 5.484375 -0.1875 6.015625 -0.640625 C 6.109375 -0.71875 6.109375 -0.84375 6.046875 -0.9375 L 5.421875 -1.78125 C 5.34375 -1.875 5.203125 -1.890625 5.109375 -1.8125 C 4.734375 -1.546875 4.1875 -1.34375 3.84375 -1.34375 C 3.03125 -1.34375 2.375 -1.78125 2.15625 -2.390625 L 6.03125 -2.390625 C 6.484375 -2.390625 6.84375 -2.9375 6.84375 -3.453125 Z M 3.671875 -4.96875 C 4.453125 -4.96875 5.078125 -4.5 5.265625 -3.828125 L 2.125 -3.828125 C 2.328125 -4.5 2.9375 -4.96875 3.671875 -4.96875 Z M 3.671875 -4.96875 "/></g></g></g></svg>